<?xml version="1.0" encoding="UTF-8" standalone="no"?>
<!DOCTYPE svg PUBLIC "-//W3C//DTD SVG 1.1//EN" "http://www.w3.org/Graphics/SVG/1.1/DTD/svg11.dtd">
<svg width="100%" height="100%" viewBox="0 0 1496 849" version="1.1" xmlns="http://www.w3.org/2000/svg" xmlns:xlink="http://www.w3.org/1999/xlink" xml:space="preserve" xmlns:serif="http://www.serif.com/" style="fill-rule:evenodd;clip-rule:evenodd;stroke-linejoin:round;stroke-miterlimit:2;">
    <g id="Artboard1" transform="matrix(1,0,0,1,-485.375,-861.46)">
        <rect x="485.375" y="861.46" width="1495.41" height="848.805" style="fill:none;"/>
        <g transform="matrix(1,0,0,1,485.375,861.46)">
            <ellipse cx="805.967" cy="469.252" rx="488.76" ry="291.167" style="fill:rgb(235,235,235);"/>
        </g>
        <g transform="matrix(1,0,0,1,485.375,861.46)">
            <path d="M524.88,483.273L549.131,481.153C550.279,490.871 552.952,498.844 557.148,505.073C561.345,511.301 567.86,516.337 576.695,520.18C585.53,524.023 595.468,525.945 606.512,525.945C616.318,525.945 624.976,524.487 632.485,521.572C639.995,518.656 645.583,514.658 649.249,509.579C652.916,504.499 654.749,498.955 654.749,492.947C654.749,486.851 652.982,481.529 649.448,476.979C645.914,472.429 640.083,468.608 631.955,465.516C626.743,463.484 615.214,460.326 597.368,456.041C579.522,451.756 567.021,447.714 559.865,443.915C550.589,439.056 543.675,433.027 539.126,425.826C534.576,418.626 532.301,410.565 532.301,401.642C532.301,391.835 535.084,382.669 540.65,374.144C546.215,365.618 554.343,359.147 565.033,354.73C575.723,350.312 587.606,348.104 600.681,348.104C615.081,348.104 627.781,350.423 638.78,355.061C649.779,359.699 658.238,366.524 664.158,375.535C670.077,384.547 673.257,394.751 673.699,406.147L649.05,408.002C647.725,395.722 643.242,386.446 635.6,380.173C627.958,373.901 616.672,370.765 601.741,370.765C586.192,370.765 574.862,373.614 567.75,379.312C560.638,385.01 557.082,391.879 557.082,399.919C557.082,406.898 559.6,412.641 564.636,417.146C569.583,421.652 582.504,426.268 603.398,430.995C624.291,435.721 638.626,439.851 646.4,443.385C657.708,448.598 666.057,455.201 671.446,463.197C676.835,471.192 679.53,480.402 679.53,490.827C679.53,501.164 676.57,510.904 670.651,520.048C664.732,529.191 656.229,536.303 645.141,541.383C634.054,546.463 621.575,549.003 607.704,549.003C590.124,549.003 575.392,546.441 563.509,541.317C551.627,536.193 542.306,528.485 535.548,518.192C528.789,507.9 525.233,496.26 524.88,483.273Z" style="fill-rule:nonzero;"/>
            <path d="M770.173,545.69L694.902,351.417L722.731,351.417L773.221,492.55C777.285,503.858 780.686,514.46 783.425,524.354C786.429,513.753 789.918,503.151 793.894,492.55L846.372,351.417L872.61,351.417L796.544,545.69L770.173,545.69Z" style="fill-rule:nonzero;"/>
            <path d="M986.577,469.491L986.577,446.698L1068.87,446.566L1068.87,518.656C1056.24,528.728 1043.21,536.303 1029.78,541.383C1016.35,546.463 1002.57,549.003 988.432,549.003C969.349,549.003 952.012,544.917 936.418,536.745C920.825,528.573 909.053,516.757 901.102,501.296C893.151,485.835 889.175,468.564 889.175,449.481C889.175,430.575 893.129,412.928 901.036,396.54C908.943,380.151 920.317,367.982 935.16,360.031C950.002,352.079 967.097,348.104 986.444,348.104C1000.49,348.104 1013.19,350.379 1024.54,354.929C1035.9,359.478 1044.8,365.817 1051.25,373.945C1057.7,382.073 1062.6,392.674 1065.96,405.75L1042.77,412.111C1039.85,402.216 1036.23,394.441 1031.9,388.787C1027.57,383.133 1021.38,378.605 1013.35,375.204C1005.31,371.803 996.383,370.102 986.577,370.102C974.827,370.102 964.667,371.891 956.098,375.469C947.528,379.047 940.615,383.751 935.358,389.582C930.102,395.413 926.016,401.818 923.1,408.798C918.153,420.813 915.679,433.844 915.679,447.891C915.679,465.207 918.661,479.695 924.624,491.357C930.588,503.019 939.268,511.677 950.664,517.331C962.061,522.985 974.164,525.812 986.975,525.812C998.106,525.812 1008.97,523.67 1019.57,519.385C1030.18,515.1 1038.21,510.528 1043.69,505.669L1043.69,469.491L986.577,469.491Z" style="fill-rule:nonzero;"/>
        </g>
    </g>
</svg>
